<?xml version="1.0" ?><!DOCTYPE svg  PUBLIC '-//W3C//DTD SVG 1.1//EN'  'http://www.w3.org/Graphics/SVG/1.1/DTD/svg11.dtd'><svg enable-background="new 0 0 64 64" height="64px" id="Layer_1" version="1.1" viewBox="0 0 64 64" width="64px" xml:space="preserve" xmlns="http://www.w3.org/2000/svg" xmlns:xlink="http://www.w3.org/1999/xlink"><g><path d="M54.274,40.064l-0.062-0.188l-0.363-0.959v-0.015l-0.015-0.016c-0.047-0.126-0.314-0.599-1.289-0.3   c-0.015,0-0.015,0-0.03,0v0.016c-1.336,0.393-5.217,1.555-9.584,2.797c-4.493,1.273-11.908,1.382-14.28,1.382   c-0.487,0-0.77,0-0.77,0H4.196c0,0-1.512-0.007-2.003,1.229c-0.001,0.002-0.001,0.002-0.001,0.002l-1.917,4.828   c-0.103,0.27-0.354,1.215,1.098,1.215H43.01c0.973,0,1.178-0.612,1.225-0.973c0-0.08,0-0.144,0.017-0.205   c-0.017-0.047-0.017-0.079-0.017-0.079h0.017c0.062-0.848,0.25-1.712,0.518-2.372c0.142-0.313,0.298-0.581,0.456-0.784   c0.079-0.095,0.157-0.204,0.235-0.315c0.062-0.078,0.141-0.156,0.204-0.234c0.032-0.032,0.062-0.081,0.096-0.11   c0.015-0.016,0.015-0.016,0.03-0.033c0.519-0.517,1.084-0.942,1.54-1.225c0.501-0.313,0.864-0.471,0.864-0.471   c1.79-0.881,3.754-1.57,4.807-1.917l0.77-0.268C54.416,40.851,54.367,40.332,54.274,40.064z" fill="#241F20"/><g><path d="M63.605,44.637l-0.942-0.519l-0.015-0.017h-0.017c-0.188-0.109-0.393-0.235-0.597-0.361H62.02    c-2.404-1.493-3.299-3.628-3.629-4.823c-0.032-0.156-0.062-0.299-0.096-0.423c-0.03-0.111-0.047-0.221-0.062-0.347    c-0.016-0.078-0.016-0.126-0.016-0.126c-0.015-0.078-0.015-0.156-0.031-0.235c-0.188-2.246,0.221-5.656,0.347-6.678    c0.03-0.189,0.045-0.299,0.045-0.299c0.441-2.702,0.975-6.174,1.133-7.713c0.031-0.282,0.046-0.487,0.046-0.628    c0.08-1.164-0.015-2.404-0.376-3.582c-0.08-0.252-0.173-0.487-0.268-0.707c-0.046-0.126-0.109-0.267-0.172-0.378    c-1.886-4.053-5.688-4.146-8.265-3.645c-0.047,0-0.095,0-0.125,0.016c-0.126,0.032-0.267,0.062-0.393,0.078    c-0.252,0.063-0.487,0.126-0.708,0.189c-0.109,0.032-0.219,0.063-0.313,0.095c-0.189,0.063-0.361,0.125-0.52,0.172    c-0.141,0.063-0.267,0.109-0.359,0.141c-0.078,0.031-0.159,0.079-0.237,0.11v0.016c-1.744,0.785-2.765,1.823-2.765,1.823    c-0.503-0.284-1.163-0.236-1.667,0.141l-1.02,0.77c0,0-0.016,0-0.032,0.015c-0.109,0.095-0.675,0.424-1.76,0.424    c-0.015,0-0.031,0-0.031,0c-1.853,0-4.697,0.032-7.664,0.188c-0.143,0.016-0.285,0.016-0.411,0.032    c-0.046,0.016-0.077,0.016-0.109,0.016c-0.627,0.031-1.257,0.079-1.901,0.172c-2.262,0.409-4.319,0.943-6.189,1.556    c-0.11,0.032-0.219,0.063-0.329,0.109C12.672,24.024,8.163,30.78,7.299,32.256c-0.078,0.141-0.126,0.219-0.156,0.267    c-1.179,1.823-2.026,3.739-2.53,5.671c-0.063,0.692,0.441,0.723,0.441,0.723h23.141c1.194,0,8.906-0.047,13.323-1.131    c0.03,0,0.045,0,0.078-0.016c3.252-0.784,5.373-1.053,9.85-2.985c0.173-0.11,0.629-0.424,0.456-1.036    c-0.251-0.88-0.786-2.106-0.786-2.106h-0.015c-0.032-0.173-0.078-0.345-0.158-0.518l-2.826-6.63    c-0.018-0.063-0.033-0.109-0.062-0.172c-0.237-0.55-0.019-0.88,0.141-1.022c0.063-0.046,0.108-0.078,0.108-0.078    c0.692-0.519,0.834-1.509,0.314-2.199l-1.648-2.2c1.211-1.083,2.418-1.713,3.472-2.074c0,0,0.141-0.047,0.378-0.11    c1.02-0.267,3.864-0.754,5.765,1.351c0.016,0.016,0.048,0.047,0.063,0.063c0.597,0.802,1.005,1.949,1.083,3.566v0.016    c0,1.523-0.251,3.079-0.423,4.273c-0.221,3.205-1.682,7.479-1.368,11.705c0.3,3.896,2.734,6.175,4.761,7.354l0.11,0.063    l0.989,0.563l0.408,0.236l0.565,0.298c0.063,0.032,0.125,0.048,0.188,0.048c0.236,0,0.519-0.204,0.708-0.533    c0.031-0.063,0.062-0.142,0.077-0.204c0.017-0.033,0.017-0.048,0.033-0.08c0.016-0.079,0.03-0.172,0.03-0.25v-0.016    C63.81,44.886,63.746,44.715,63.605,44.637z M45.41,33.321c-3.225,1.401-4.753,1.595-7.093,2.164    c-0.025,0.011-0.034,0.011-0.06,0.011c-3.178,0.786-8.734,0.819-9.594,0.819H11.997c0,0-0.361-0.022-0.316-0.523    c0.361-1.399,0.972-2.791,1.821-4.111c0.023-0.034,0.057-0.09,0.113-0.194c0.623-1.07,3.869-5.966,12.129-8.724    c0.08-0.033,0.159-0.057,0.238-0.08c1.348-0.444,2.829-0.831,4.458-1.128c0.159-0.022,0.312-0.027,0.471-0.042    c0.131-0.017,0.244-0.037,0.392-0.05c4.928-0.446,7.98-0.425,7.98-0.425l-0.005,0.003c1.071-0.069,2.401,0.03,3.005,0.841    l1.089,1.462c0.372,0.501,0.271,1.218-0.227,1.594c0,0-0.031,0.023-0.076,0.057c-0.118,0.103-0.274,0.342-0.105,0.74    c0.021,0.046,0.034,0.08,0.047,0.126l2.037,4.805c0.055,0.127,0.089,0.25,0.111,0.376h0.012c0,0,0.387,0.887,0.564,1.525    C45.862,33.012,45.533,33.242,45.41,33.321z" fill="#241F20"/></g></g></svg>