<?xml version="1.0"?>
<svg xmlns="http://www.w3.org/2000/svg" id="Capa_1" enable-background="new 0 0 512 512" height="512px" viewBox="0 0 512 512" width="512px" class=""><g><g><g><path d="m361.371 123.33c0-8.802-7.161-15.963-15.963-15.963h-90.735c-70.24 0-133.985 41.61-162.399 106.008-1.832 4.151-1.443 8.902 1.039 12.71 2.492 3.822 6.701 6.104 11.26 6.104h240.835c8.802 0 15.963-7.16 15.963-15.962zm-79.728 93.859h-86.565v-22.018c0-1.931 1.571-3.501 3.501-3.501h79.563c1.931 0 3.501 1.57 3.501 3.501zm64.728-.961c0 .53-.432.962-.963.962h-48.766v-22.018c0-10.201-8.3-18.501-18.501-18.501h-79.563c-10.202 0-18.501 8.3-18.501 18.501v22.018h-73.071c26.493-57.689 84.183-94.822 147.667-94.822h90.735c.531 0 .963.432.963.963z" data-original="#000000" class="active-path" data-old_color="#000000" fill="#d65047"/><path d="m346.371 250.341v23.694c0 4.143 3.357 7.5 7.5 7.5s7.5-3.357 7.5-7.5v-23.694c0-4.143-3.357-7.5-7.5-7.5s-7.5 3.357-7.5 7.5z" data-original="#000000" class="active-path" data-old_color="#000000" fill="#d65047"/><path d="m319.984 250.341v23.694c0 4.143 3.357 7.5 7.5 7.5s7.5-3.357 7.5-7.5v-23.694c0-4.143-3.357-7.5-7.5-7.5s-7.5 3.357-7.5 7.5z" data-original="#000000" class="active-path" data-old_color="#000000" fill="#d65047"/><path d="m293.598 250.341v23.694c0 4.143 3.357 7.5 7.5 7.5s7.5-3.357 7.5-7.5v-23.694c0-4.143-3.357-7.5-7.5-7.5s-7.5 3.357-7.5 7.5z" data-original="#000000" class="active-path" data-old_color="#000000" fill="#d65047"/><path d="m475.713 125.299h-12.85v-4.486c0-8.943-7.275-16.219-16.219-16.219h-25.191v-20.527c0-12.346-10.044-22.39-22.39-22.39h-144.39c-16.152 0-32.296 1.632-47.984 4.852-4.058.832-6.672 4.797-5.84 8.854.833 4.057 4.794 6.673 8.854 5.839 14.698-3.016 29.828-4.545 44.969-4.545h144.391c4.074 0 7.39 3.315 7.39 7.39v154.848c-.063 0-5.631 0-5.568 0-11.161 0-19.952 9.072-19.952 19.955v32.795l-348.619-.001c3.051-89.557 60.491-169.767 144.865-201.121 3.883-1.442 5.861-5.76 4.418-9.643s-5.76-5.862-9.643-4.418c-44.968 16.71-83.445 46.329-111.271 85.653-27.187 38.421-42.119 83.389-43.396 130.433-9.964 2.826-17.287 11.999-17.287 22.855 0 13.101 10.658 23.759 23.758 23.759h270c4.143 0 7.5-3.357 7.5-7.5s-3.357-7.5-7.5-7.5h-270c-4.829 0-8.758-3.929-8.758-8.759 0-4.829 3.929-8.758 8.758-8.758h.928 369.361c4.83 0 8.759 3.929 8.759 8.758 0 4.83-3.929 8.759-8.759 8.759h-65.29c-4.143 0-7.5 3.357-7.5 7.5s3.357 7.5 7.5 7.5h65.29c13.101 0 23.759-10.658 23.759-23.759 0-12.465-9.652-22.711-21.874-23.676v-32.877c0-1.298.577-2.588 1.09-3.101 1.943-2.418 4.444-1.854 9.982-1.854 7.967 0 14.448-6.481 14.448-14.448v-78.463h25.191c8.943 0 16.219-7.275 16.219-16.219v-4.486h12.85c11.737 0 21.287 9.55 21.287 21.287v217.706c0 11.737-9.55 21.287-21.287 21.287h-208.09c-3.551-19.726-20.83-34.743-41.563-34.743h-28.759c-6.341 0-11.5 5.159-11.5 11.5v6.36h-27.243c-4.142 0-7.5 3.357-7.5 7.5s3.358 7.5 7.5 7.5h27.243v18.766h-27.243c-4.142 0-7.5 3.357-7.5 7.5s3.358 7.5 7.5 7.5h27.243v6.36c0 6.341 5.159 11.5 11.5 11.5h28.758c20.733 0 38.012-15.018 41.563-34.743h208.091c20.009 0 36.287-16.278 36.287-36.287v-217.706c.001-20.009-16.277-36.287-36.286-36.287zm-27.85 19.486c0 .672-.547 1.219-1.219 1.219h-25.191v-26.41h25.191c.672 0 1.219.547 1.219 1.219zm-221.805 290.537h-25.258v-54.486h25.258c15.022 0 27.244 12.222 27.244 27.243s-12.222 27.243-27.244 27.243z" data-original="#000000" class="active-path" data-old_color="#000000" fill="#d65047"/></g></g></g> </svg>
