<?xml version="1.0"?>
<svg xmlns="http://www.w3.org/2000/svg" id="Capa_1" enable-background="new 0 0 512.023 512.023" height="512px" viewBox="0 0 512.023 512.023" width="512px"><g><g><path d="m474.77 384.802c-21.052-5.548-49.489-13.65-85.928-27.678-.463-2.866-2.161-5.508-4.87-7.072l-34.64-20c-4.77-2.754-10.894-1.131-13.661 3.661l-.366.633c-6.054-2.833-12.087-5.745-18.059-8.718l1.106-1.916c2.761-4.783 1.122-10.898-3.661-13.66l-34.64-20c-4.781-2.759-10.9-1.122-13.661 3.662l-1.863 3.226c-12.513-7.414-24.913-15.206-36.967-23.247-4.415-2.945-10.363-1.928-13.549 2.319l-48.001 64.002c-5.633 7.513-14.605 11.998-23.999 11.998h-32c-16.542 0-30-13.458-30-30 0-5.523-4.477-10-10-10h-40c-4.977 0-9.196 3.659-9.899 8.585-21.268 149.126-20.101 140.072-20.101 141.415 0 27.57 22.681 50 50.56 50h297.06c51.563 0 102.886-12.542 148.417-36.27 9.846-5.125 15.963-15.352 15.963-26.69v-15.92c0-22.212-14.797-42.42-37.241-48.33zm-126.778-32.429 17.322 10.001-25.005 43.302c-2.743 4.756-8.842 6.435-13.662 3.654-4.786-2.761-6.418-8.869-3.656-13.657zm-51.96-30c-5.251 9.095-30.057 52.057-35.002 60.623-2.757 4.78-8.868 6.422-13.662 3.654-4.772-2.753-6.412-8.881-3.656-13.657 5.421-9.388 27.506-47.637 35.002-60.619zm-257.348 9.639h22.332c4.646 22.794 24.85 40 48.996 40h32c15.657 0 30.611-7.477 40-20l42.355-56.473c9.901 6.443 19.996 12.702 30.161 18.722l-28.138 48.735c-8.268 14.333-3.339 32.716 10.982 40.977 14.343 8.282 32.685 3.401 40.981-10.979l28.877-50.013c5.964 2.981 11.99 5.903 18.04 8.749l-19.6 33.947c-8.284 14.361-3.383 32.692 10.986 40.979 14.265 8.228 32.676 3.409 40.976-10.982l23.211-40.195c37.731 14.57 67.115 22.94 88.833 28.664 5.86 1.543 11.004 4.765 14.887 9.196-41.234 25.33-88.364 38.673-136.921 38.673h-297.07c-11.119 0-21.421-6.153-26.77-15.819zm453.327 117.04c0 3.794-2.04 7.306-5.202 8.952-42.692 22.249-90.82 34.008-139.178 34.008h-297.059c-16.912 0-30.207-12.833-30.553-29.338l.128-.897c8.632 6.498 19.28 10.236 30.425 10.236h297.07c51.082 0 100.689-13.725 144.346-39.798.009.306.024.611.024.918v15.919z" data-original="#000000" class="active-path" data-old_color="#000000" fill="#d65047"/><circle cx="316.012" cy="230.012" r="10" data-original="#000000" class="active-path" data-old_color="#000000" fill="#d65047"/><path d="m491.911 48.598c-.704-4.926-4.923-8.585-9.899-8.585h-40c-5.523 0-10 4.477-10 10 0 16.542-13.458 30-30 30h-32c-9.395 0-18.366-4.485-24-12l-48-64c-3.185-4.247-9.134-5.266-13.549-2.319-12.054 8.041-24.454 15.833-36.967 23.247l-1.863-3.226c-2.764-4.79-8.889-6.42-13.661-3.662l-34.64 20c-4.783 2.761-6.421 8.877-3.661 13.66l1.107 1.917c-5.951 2.964-11.984 5.875-18.059 8.717l-.366-.633c-2.765-4.789-8.888-6.417-13.661-3.661l-34.64 20c-2.71 1.564-4.407 4.206-4.87 7.072-36.44 14.028-64.877 22.13-85.926 27.678-22.264 5.862-37.244 25.925-37.244 48.33v15.92c0 11.338 6.117 21.565 15.958 26.688 45.535 23.73 96.855 36.272 148.412 36.272h106.631c5.523 0 10-4.477 10-10s-4.477-10-10-10h-106.631c-48.352 0-96.476-11.76-139.173-34.01-3.157-1.643-5.197-5.156-5.197-8.95 0 0 .015-16.532.024-16.838 43.657 26.073 93.264 39.798 144.346 39.798h297.07c11.145 0 21.793-3.738 30.425-10.236l.128.898c-.348 16.504-13.643 29.338-30.553 29.338h-100.44c-5.523 0-10 4.477-10 10s4.477 10 10 10h100.439c27.879 0 50.56-22.43 50.56-50 0-1.344 1.18 7.797-20.1-141.415zm-258.602-8.224c7.516 13.017 29.573 51.216 35 60.615 2.757 4.78 1.118 10.908-3.658 13.663-4.781 2.762-10.896 1.131-13.66-3.66-2.857-4.947-30.154-52.224-35.001-60.619zm-69.278 39.999 24.999 43.296c2.756 4.778 1.115 10.907-3.655 13.661-4.78 2.757-10.908 1.118-13.664-3.658l-25.002-43.298zm297.42 99.639h-297.07c-48.558 0-95.689-13.344-136.924-38.675 3.881-4.426 9.027-7.651 14.892-9.195 21.716-5.724 51.1-14.094 88.831-28.664l23.208 40.191c8.291 14.374 26.621 19.266 40.982 10.983 14.319-8.268 19.246-26.65 10.98-40.98l-19.595-33.942c6.07-2.855 12.097-5.776 18.041-8.747l28.873 50.006c8.278 14.351 26.607 19.285 40.979 10.985 14.325-8.263 19.253-26.646 10.983-40.982l-28.136-48.731c10.165-6.019 20.259-12.278 30.161-18.722l42.354 56.472c9.39 12.524 24.344 20.001 40.001 20.001h32c24.146 0 44.349-17.206 48.996-40h22.331l14.883 104.181c-5.349 9.666-15.651 15.819-26.77 15.819z" data-original="#000000" class="active-path" data-old_color="#000000" fill="#d65047"/></g></g> </svg>
